<svg xmlns="http://www.w3.org/2000/svg" viewBox="0 0 1200 650" role="img" aria-labelledby="title desc">
  <title id="title">Abstract desk scene with quadrant notes and a laptop</title>
  <desc id="desc">A bold editorial placeholder image with hard black borders, colored paper notes, and simple analytics shapes.</desc>
  <rect width="1200" height="650" fill="#f4d35e"/>
  <rect x="42" y="42" width="1116" height="566" fill="#fbfaf6" stroke="#111" stroke-width="16"/>
  <rect x="92" y="88" width="470" height="310" fill="#4ea5d9" stroke="#111" stroke-width="12"/>
  <line x1="327" y1="88" x2="327" y2="398" stroke="#111" stroke-width="10"/>
  <line x1="92" y1="243" x2="562" y2="243" stroke="#111" stroke-width="10"/>
  <circle cx="209" cy="170" r="38" fill="#fbfaf6" stroke="#111" stroke-width="10"/>
  <rect x="382" y="136" width="86" height="64" fill="#f95738" stroke="#111" stroke-width="10"/>
  <path d="M174 330l80-54 70 28 92-92 74 48" fill="none" stroke="#111" stroke-width="13" stroke-linecap="square" stroke-linejoin="miter"/>
  <rect x="642" y="110" width="358" height="244" fill="#ffffff" stroke="#111" stroke-width="12"/>
  <rect x="688" y="156" width="268" height="24" fill="#111"/>
  <rect x="688" y="212" width="202" height="20" fill="#111"/>
  <rect x="688" y="262" width="242" height="20" fill="#111"/>
  <rect x="650" y="392" width="332" height="122" fill="#f95738" stroke="#111" stroke-width="12"/>
  <rect x="704" y="432" width="222" height="32" fill="#fbfaf6" stroke="#111" stroke-width="8"/>
  <rect x="146" y="454" width="400" height="88" fill="#ffffff" stroke="#111" stroke-width="12"/>
  <rect x="180" y="488" width="226" height="20" fill="#111"/>
  <rect x="1008" y="440" width="82" height="82" fill="#4ea5d9" stroke="#111" stroke-width="12"/>
  <rect x="1038" y="470" width="82" height="82" fill="#ffffff" stroke="#111" stroke-width="12"/>
</svg>
